<svg width="33" height="48" viewBox="0 0 33 48" fill="none" xmlns="http://www.w3.org/2000/svg">
<path d="M0.127836 38.9759C1.5785 37.8239 2.23984 37.2906 2.11184 37.3759C6.29317 33.9199 9.5785 31.0826 11.9678 28.8639C14.3998 26.6452 16.4478 24.3199 18.1118 21.8879C19.7758 19.4559 20.6078 17.0879 20.6078 14.7839C20.6078 13.0346 20.2025 11.6692 19.3918 10.6879C18.5812 9.70656 17.3652 9.21589 15.7438 9.21589C14.1225 9.21589 12.8425 9.83456 11.9038 11.0719C11.0078 12.2666 10.5598 13.9732 10.5598 16.1919H-0.000164032C0.0851693 12.5652 0.853169 9.5359 2.30384 7.10389C3.79717 4.67189 5.7385 2.87989 8.12784 1.72789C10.5598 0.575893 13.2478 -0.000106812 16.1918 -0.000106812C21.2692 -0.000106812 25.0878 1.30123 27.6478 3.90389C30.2505 6.50656 31.5518 9.89856 31.5518 14.0799C31.5518 18.6452 29.9945 22.8906 26.8798 26.8159C23.7652 30.6986 19.7972 34.4959 14.9758 38.2079H32.2558V47.1039H0.127836V38.9759Z" fill="white"/>
</svg>
