<svg width="33" height="49" viewBox="0 0 33 49" fill="none" xmlns="http://www.w3.org/2000/svg">
<path d="M0.575524 14.2721C0.74619 9.70677 2.23952 6.18677 5.05552 3.7121C7.87152 1.23744 11.6902 0.000102997 16.5115 0.000102997C19.7115 0.000102997 22.4422 0.55477 24.7035 1.6641C27.0075 2.77344 28.7355 4.2881 29.8875 6.2081C31.0822 8.1281 31.6795 10.2828 31.6795 12.6721C31.6795 15.4881 30.9755 17.7921 29.5675 19.5841C28.1595 21.3334 26.5169 22.5281 24.6395 23.1681V23.4241C27.0715 24.2348 28.9915 25.5788 30.3995 27.4561C31.8075 29.3334 32.5115 31.7441 32.5115 34.6881C32.5115 37.3334 31.8929 39.6801 30.6555 41.7281C29.4609 43.7334 27.6902 45.3121 25.3435 46.4641C23.0395 47.6161 20.2875 48.1921 17.0875 48.1921C11.9675 48.1921 7.87152 46.9334 4.79952 44.4161C1.77019 41.8988 0.17019 38.1014 -0.00047636 33.0241H10.6235C10.6662 34.9014 11.1995 36.3948 12.2235 37.5041C13.2475 38.5708 14.7409 39.1041 16.7035 39.1041C18.3675 39.1041 19.6475 38.6348 20.5435 37.6961C21.4822 36.7148 21.9515 35.4348 21.9515 33.8561C21.9515 31.8081 21.2902 30.3361 19.9675 29.4401C18.6875 28.5014 16.6182 28.0321 13.7595 28.0321H11.7115V19.1361H13.7595C15.9355 19.1361 17.6849 18.7734 19.0075 18.0481C20.3729 17.2801 21.0555 15.9361 21.0555 14.0161C21.0555 12.4801 20.6289 11.2854 19.7755 10.4321C18.9222 9.57877 17.7489 9.1521 16.2555 9.1521C14.6342 9.1521 13.4182 9.64277 12.6075 10.6241C11.8395 11.6054 11.3915 12.8214 11.2635 14.2721H0.575524Z" fill="white"/>
</svg>
