<svg width="25" height="25" viewBox="0 0 25 25" fill="none" xmlns="http://www.w3.org/2000/svg">
<path d="M17.6572 2.84766H20.9572C21.5407 2.84766 22.1003 3.02595 22.5129 3.34332C22.9254 3.66069 23.1572 4.09114 23.1572 4.53996V21.463C23.1572 21.9119 22.9254 22.3423 22.5129 22.6597C22.1003 22.9771 21.5407 23.1553 20.9572 23.1553H3.35723C2.77375 23.1553 2.21417 22.9771 1.80159 22.6597C1.38901 22.3423 1.15723 21.9119 1.15723 21.463V4.53996C1.15723 4.09114 1.38901 3.66069 1.80159 3.34332C2.21417 3.02595 2.77375 2.84766 3.35723 2.84766H6.65723" stroke="#000001" stroke-width="2.31353" stroke-linecap="round" stroke-linejoin="round"/>
<path d="M15.4572 1.15625H8.85723C7.6422 1.15625 6.65723 1.91392 6.65723 2.84856V3.69471C6.65723 4.62935 7.6422 5.38702 8.85723 5.38702H15.4572C16.6723 5.38702 17.6572 4.62935 17.6572 3.69471V2.84856C17.6572 1.91392 16.6723 1.15625 15.4572 1.15625Z" stroke="#000001" stroke-width="2.31353" stroke-linecap="round" stroke-linejoin="round"/>
<path d="M12.1572 10.4648V17.2341" stroke="#000001" stroke-width="2.31353" stroke-linecap="round" stroke-linejoin="round"/>
<path d="M16.5588 13.8477H7.75879" stroke="#000001" stroke-width="2.31353" stroke-linecap="round" stroke-linejoin="round"/>
</svg>
