<svg width="63" height="27" viewBox="0 0 63 27" fill="none" xmlns="http://www.w3.org/2000/svg">
<rect opacity="0.6" x="0.5" y="0.5" width="62" height="26" rx="13" fill="#505050" stroke="#B6B6B6"/>
<path d="M21.9424 16.271H18.3284L17.7304 18H15.8194L19.0824 8.913H21.2014L24.4644 18H22.5404L21.9424 16.271ZM21.4484 14.815L20.1354 11.019L18.8224 14.815H21.4484ZM29.9481 18L27.5041 14.932V18H25.6841V8.38H27.5041V13.853L29.9221 10.798H32.2881L29.1161 14.412L32.3141 18H29.9481ZM35.3949 12.293V15.777C35.3949 16.0197 35.4512 16.1973 35.5639 16.31C35.6852 16.414 35.8846 16.466 36.1619 16.466H37.0069V18H35.8629C34.3289 18 33.5619 17.2547 33.5619 15.764V12.293H32.7039V10.798H33.5619V9.017H35.3949V10.798H37.0069V12.293H35.3949ZM39.2389 9.94C38.9183 9.94 38.6496 9.84033 38.4329 9.641C38.2249 9.433 38.1209 9.17733 38.1209 8.874C38.1209 8.57067 38.2249 8.31933 38.4329 8.12C38.6496 7.912 38.9183 7.808 39.2389 7.808C39.5596 7.808 39.8239 7.912 40.0319 8.12C40.2486 8.31933 40.3569 8.57067 40.3569 8.874C40.3569 9.17733 40.2486 9.433 40.0319 9.641C39.8239 9.84033 39.5596 9.94 39.2389 9.94ZM40.1359 10.798V18H38.3159V10.798H40.1359ZM45.2361 12.293H43.9751V18H42.1291V12.293H41.3101V10.798H42.1291V10.434C42.1291 9.55 42.3804 8.9 42.8831 8.484C43.3858 8.068 44.1441 7.873 45.1581 7.899V9.433C44.7161 9.42433 44.4084 9.498 44.2351 9.654C44.0618 9.81 43.9751 10.0917 43.9751 10.499V10.798H45.2361V12.293Z" fill="#00CF53"/>
</svg>
