<svg width="22" height="22" viewBox="0 0 22 22" fill="none" xmlns="http://www.w3.org/2000/svg">
<path d="M6.13843 0C5.46493 0 4.91831 0.518737 4.91831 1.15789C2.22063 1.15789 0 3.234 0 5.78947V8.10526L0.0378309 17.3684C0.0378309 19.9227 2.22307 22 4.91831 22H17.1195C19.8148 22 22 19.9262 22 17.3684L21.9622 8.10526V5.78947C21.9622 3.22937 19.8123 1.15789 17.1195 1.15789C17.1195 0.518737 16.5741 0 15.8994 0C15.2259 0 14.6793 0.518737 14.6793 1.15789H7.35855C7.35855 0.518737 6.81316 0 6.13843 0ZM4.91831 3.47368C4.91831 4.11284 5.46493 4.63158 6.13843 4.63158C6.81316 4.63158 7.35855 4.11284 7.35855 3.47368H14.6793C14.6793 4.11284 15.2259 4.63158 15.8994 4.63158C16.5741 4.63158 17.1195 4.11284 17.1195 3.47368C18.458 3.47368 19.5219 4.50189 19.5219 5.78947V6.94737C17.1744 6.94737 4.78775 6.94737 2.44024 6.94737V5.78947C2.44024 4.51926 3.56154 3.47368 4.91831 3.47368ZM2.44024 9.26316C4.78775 9.26316 17.1744 9.26316 19.5219 9.26316L19.5598 17.3684C19.5598 18.6433 18.4678 19.6842 17.1195 19.6842H4.91831C3.5713 19.6842 2.47807 18.6479 2.47807 17.3684L2.44024 9.26316Z" fill="#212121"/>
</svg>
