<svg width="25" height="28" viewBox="0 0 25 28" fill="none" xmlns="http://www.w3.org/2000/svg">
<path d="M17.6572 3.08008H20.9572C21.5407 3.08008 22.1003 3.28269 22.5129 3.64333C22.9254 4.00398 23.1572 4.49312 23.1572 5.00315V24.2339C23.1572 24.744 22.9254 25.2331 22.5129 25.5937C22.1003 25.9544 21.5407 26.157 20.9572 26.157H3.35723C2.77375 26.157 2.21417 25.9544 1.80159 25.5937C1.38901 25.2331 1.15723 24.744 1.15723 24.2339V5.00315C1.15723 4.49312 1.38901 4.00398 1.80159 3.64333C2.21417 3.28269 2.77375 3.08008 3.35723 3.08008H6.65723" stroke="#000001" stroke-width="2.31353" stroke-linecap="round" stroke-linejoin="round"/>
<path d="M15.4572 1.15625H8.85723C7.6422 1.15625 6.65723 2.01724 6.65723 3.07933V4.04087C6.65723 5.10295 7.6422 5.96394 8.85723 5.96394H15.4572C16.6723 5.96394 17.6572 5.10295 17.6572 4.04087V3.07933C17.6572 2.01724 16.6723 1.15625 15.4572 1.15625Z" stroke="#000001" stroke-width="2.31353" stroke-linecap="round" stroke-linejoin="round"/>
<path d="M6.65723 16.5401L11.0572 19.4247L16.5572 11.7324" stroke="#000001" stroke-width="2.31353" stroke-linecap="round" stroke-linejoin="round"/>
</svg>
