<svg width="31" height="30" viewBox="0 0 31 30" fill="none" xmlns="http://www.w3.org/2000/svg">
<path d="M23.2229 0H7.75146C3.47721 0 0 3.47721 0 7.75146V21.9055C0 26.1798 3.47721 29.657 7.75146 29.657H23.2229C27.4971 29.657 30.9743 26.1798 30.9743 21.9055V7.75146C30.9743 3.47721 27.4971 0 23.2229 0ZM2.73447 7.75146C2.73447 4.98546 4.98546 2.73447 7.75146 2.73447H23.2229C25.9889 2.73447 28.2399 4.98546 28.2399 7.75146V21.9055C28.2399 24.6715 25.9889 26.9225 23.2229 26.9225H7.75146C4.98546 26.9225 2.73447 24.6715 2.73447 21.9055V7.75146Z" fill="white"/>
<path d="M15.487 22.0424C19.4617 22.0424 22.6972 18.8087 22.6972 14.8322C22.6972 10.8558 19.4635 7.62207 15.487 7.62207C11.5106 7.62207 8.27686 10.8558 8.27686 14.8322C8.27686 18.8087 11.5106 22.0424 15.487 22.0424ZM15.487 10.3583C17.9552 10.3583 19.9627 12.3658 19.9627 14.834C19.9627 17.3022 17.9552 19.3097 15.487 19.3097C13.0188 19.3097 11.0113 17.3022 11.0113 14.834C11.0113 12.3658 13.0188 10.3583 15.487 10.3583Z" fill="white"/>
<path d="M23.3646 8.78528C24.4349 8.78528 25.3072 7.91466 25.3072 6.84259C25.3072 5.77052 24.4366 4.8999 23.3646 4.8999C22.2925 4.8999 21.4219 5.77052 21.4219 6.84259C21.4219 7.91466 22.2925 8.78528 23.3646 8.78528Z" fill="white"/>
</svg>
