<svg width="39" height="40" viewBox="0 0 39 40" fill="none" xmlns="http://www.w3.org/2000/svg">
<path d="M13.75 15.25C17.3398 15.25 20.25 12.3398 20.25 8.75C20.25 5.16015 17.3398 2.25 13.75 2.25C10.1602 2.25 7.25 5.16015 7.25 8.75C7.25 12.3398 10.1602 15.25 13.75 15.25Z" stroke="#F89550" stroke-width="4.5" stroke-linecap="round" stroke-linejoin="round"/>
<path d="M14.2831 34.25H2.25V32.842C2.27129 30.862 2.80881 28.9199 3.81235 27.1967C4.81591 25.4734 6.25274 24.0253 7.98864 22.9877C9.72456 21.95 11.7029 21.3567 13.7389 21.2631C13.9204 21.2548 14.1019 21.2504 14.2831 21.25C14.4643 21.2504 14.6458 21.2548 14.8273 21.2631C16.8633 21.3567 18.8417 21.95 20.5776 22.9877C21.5758 23.5844 22.4751 24.3168 23.25 25.1592" stroke="#F89550" stroke-width="4.5" stroke-linecap="round" stroke-linejoin="round"/>
<path d="M36.25 22.25L25.4552 37.25L18.25 31.6318" stroke="#F89550" stroke-width="4.5" stroke-linecap="round" stroke-linejoin="round"/>
</svg>
