<svg width="24" height="28" viewBox="0 0 24 28" fill="none" xmlns="http://www.w3.org/2000/svg">
<path d="M23.7309 6.63211V11.353C22.9058 11.2725 21.8337 11.085 20.6478 10.6506C19.0992 10.083 17.9466 9.30701 17.1916 8.70617V18.2479L17.1723 18.2181C17.1846 18.4073 17.1916 18.6 17.1916 18.7945C17.1916 23.5329 13.336 27.3903 8.5958 27.3903C3.85559 27.3903 0 23.5329 0 18.7945C0 14.056 3.85559 10.1969 8.5958 10.1969C9.06001 10.1969 9.51547 10.2337 9.96042 10.3055V14.9581C9.53299 14.8057 9.07403 14.7234 8.5958 14.7234C6.35182 14.7234 4.52475 16.5487 4.52475 18.7945C4.52475 21.0402 6.35182 22.8655 8.5958 22.8655C10.8398 22.8655 12.6669 21.0384 12.6669 18.7945C12.6669 18.7104 12.6651 18.6263 12.6598 18.5422V0H17.3773C17.3948 0.399397 17.4106 0.802306 17.4281 1.2017C17.4596 1.98824 17.7399 2.74323 18.2286 3.3616C18.8015 4.08857 19.6475 4.93291 20.8352 5.60733C21.9476 6.23621 22.9916 6.50773 23.7309 6.6356V6.63211Z" fill="white"/>
</svg>
