<svg width="100" height="100" viewBox="0 0 100 100" fill="none" xmlns="http://www.w3.org/2000/svg">
<rect width="100" height="100" fill="#A0C3FF"/>
<path d="M49.5 16C40.897 16 33.9231 23.5882 33.9231 32.9464C33.9231 42.3046 40.897 49.8929 49.5 49.8929C58.103 49.8929 65.0769 42.3046 65.0769 32.9464C65.0769 23.5882 58.103 16 49.5 16ZM37.601 54.9542C31.2522 57.8049 27 64.7907 27 72.4881V80.0198C27 82.0986 28.5497 83.7857 30.4615 83.7857H68.5385C70.4503 83.7857 72 82.0986 72 80.0198V72.4881C72 64.9714 67.7243 58.1552 61.399 55.1877C60.5087 54.7697 59.4713 54.7584 58.5865 55.1877C55.5238 56.6827 52.5399 57.4246 49.5 57.4246C46.4705 57.4246 43.4762 56.6413 40.3055 55.0709C39.4335 54.6379 38.4864 54.555 37.601 54.9542Z" fill="#007DF0"/>
</svg>
