<svg width="33" height="23" viewBox="0 0 33 23" fill="none" xmlns="http://www.w3.org/2000/svg">
<path d="M31.7587 5.98699C31.562 4.08797 31.1386 1.98868 29.5804 0.885457C28.3735 0.0299305 26.7872 -0.00169754 25.3063 5.91855e-05C22.1758 5.91855e-05 19.0436 0.00533623 15.9131 0.00709296C12.902 0.0106064 9.89099 0.012361 6.87995 0.0158745C5.62214 0.0158745 4.39945 -0.0807477 3.23122 0.463838C2.22813 0.931128 1.44287 1.82004 0.970314 2.80908C0.315054 4.1846 0.178036 5.74281 0.0989834 7.26414C-0.0468252 10.0345 -0.0310146 12.8119 0.142902 15.5805C0.271143 17.6007 0.596132 19.8335 2.15786 21.1212C3.54217 22.2613 5.49564 22.3175 7.29102 22.3193C12.9899 22.3246 18.6905 22.3298 24.391 22.3333C25.1218 22.3351 25.8843 22.3211 26.6291 22.2402C28.0942 22.0821 29.4908 21.6623 30.4324 20.5766C31.3828 19.4822 31.627 17.9591 31.7711 16.5168C32.1224 13.0174 32.1189 9.48464 31.7587 5.98699ZM12.6174 16.0724V6.26104L21.113 11.1658L12.6174 16.0724Z" fill="white"/>
</svg>
