<svg width="39" height="39" viewBox="0 0 39 39" fill="none" xmlns="http://www.w3.org/2000/svg">
<path d="M12.75 15.25C16.3398 15.25 19.25 12.3398 19.25 8.75C19.25 5.16015 16.3398 2.25 12.75 2.25C9.16015 2.25 6.25 5.16015 6.25 8.75C6.25 12.3398 9.16015 15.25 12.75 15.25Z" stroke="#F89550" stroke-width="4.5" stroke-linecap="round" stroke-linejoin="round"/>
<path d="M14.2831 35.25H2.25V33.842C2.27129 31.862 2.80881 29.9199 3.81235 28.1967C4.81591 26.4734 6.25274 25.0253 7.98864 23.9877C9.72456 22.95 11.7029 22.3567 13.7389 22.2631C13.9204 22.2548 14.1019 22.2504 14.2831 22.25C14.4643 22.2504 14.6458 22.2548 14.8273 22.2631C16.8633 22.3567 18.8417 22.95 20.5776 23.9877C21.5758 24.5844 22.4751 25.3168 23.25 26.1592" stroke="#F89550" stroke-width="4.5" stroke-linecap="round" stroke-linejoin="round"/>
<path d="M36.25 21.25L25.4552 36.25L18.25 30.6318" stroke="#F89550" stroke-width="4.5" stroke-linecap="round" stroke-linejoin="round"/>
</svg>
